HIERARCHY
ROOT hip
{
  OFFSET 0 0 0
  CHANNELS 6 Xposition Yposition Zposition Zrotation Yrotation Xrotation
  JOINT abdomen
  {
    OFFSET 0 20.6881 -0.73152
    CHANNELS 3 Zrotation Xrotation Yrotation
    JOINT chest
    {
      OFFSET 0 11.7043 -0.48768
      CHANNELS 3 Zrotation Xrotation Yrotation
      JOINT neck
      {
        OFFSET 0 22.1894 -2.19456
        CHANNELS 3 Zrotation Xrotation Yrotation
        JOINT head
        {
          OFFSET -0.24384 7.07133 1.2192
          CHANNELS 3 Zrotation Xrotation Yrotation
          JOINT leftEye
          {
            OFFSET 4.14528 8.04674 8.04672
            CHANNELS 3 Zrotation Xrotation Yrotation
            End Site
            {
              OFFSET 1 0 0
            }
          }
          JOINT rightEye
          {
            OFFSET -3.6576 8.04674 8.04672
            CHANNELS 3 Zrotation Xrotation Yrotation
            End Site
            {
              OFFSET 1 0 0
            }
          }
        }
      }
      JOINT rCollar
      {
        OFFSET -2.68224 19.2634 -4.8768
        CHANNELS 3 Zrotation Xrotation Yrotation
        JOINT rShldr
        {
          OFFSET -8.77824 -1.95073 1.46304
          CHANNELS 3 Zrotation Xrotation Yrotation
          JOINT rForeArm
          {
            OFFSET -28.1742 -1.7115 0.48768
            CHANNELS 3 Zrotation Xrotation Yrotation
            JOINT rHand
            {
              OFFSET -22.5879 0.773209 7.07136
              CHANNELS 3 Zrotation Xrotation Yrotation
              JOINT rThumb1
              {
                OFFSET -1.2192 -0.487915 3.41376
                CHANNELS 3 Zrotation Xrotation Yrotation
                JOINT rThumb2
                {
                  OFFSET -3.37035 -0.52449 3.41376
                  CHANNELS 3 Zrotation Xrotation Yrotation
                  End Site
                  {
                    OFFSET -1.78271 -1.18214 1.43049
                  }
                }
              }
              JOINT rIndex1
              {
                OFFSET -7.75947 0.938293 5.60832
                CHANNELS 3 Zrotation Xrotation Yrotation
                JOINT rIndex2
                {
                  OFFSET -2.54057 -0.884171 1.56538
                  CHANNELS 3 Zrotation Xrotation Yrotation
                  End Site
                  {
                    OFFSET -1.62519 -0.234802 1.16502
                  }
                }
              }
              JOINT rMid1
              {
                OFFSET -8.24714 1.18213 3.41376
                CHANNELS 3 Zrotation Xrotation Yrotation
                JOINT rMid2
                {
                  OFFSET -3.10165 -0.590103 1.0647
                  CHANNELS 3 Zrotation Xrotation Yrotation
                  End Site
                  {
                    OFFSET -2.48547 -0.328903 0.83742
                  }
                }
              }
              JOINT rRing1
              {
                OFFSET -8.82822 0.546677 1.51678
                CHANNELS 3 Zrotation Xrotation Yrotation
                JOINT rRing2
                {
                  OFFSET -2.60934 -0.819778 -0.0198488
                  CHANNELS 3 Zrotation Xrotation Yrotation
                  End Site
                  {
                    OFFSET -2.33842 -0.294052 0.168128
                  }
                }
              }
              JOINT rPinky1
              {
                OFFSET -8.27202 -0.0477905 -0.4584
                CHANNELS 3 Zrotation Xrotation Yrotation
                JOINT rPinky2
                {
                  OFFSET -1.82734 -0.647385 -0.700984
                  CHANNELS 3 Zrotation Xrotation Yrotation
                  End Site
                  {
                    OFFSET -1.69225 -0.51767 -0.607171
                  }
                }
              }
            }
          }
        }
      }
      JOINT lCollar
      {
        OFFSET 2.68224 19.2634 -4.8768
        CHANNELS 3 Zrotation Xrotation Yrotation
        JOINT lShldr
        {
          OFFSET 8.77824 -1.95073 1.46304
          CHANNELS 3 Zrotation Xrotation Yrotation
          JOINT lForeArm
          {
            OFFSET 28.1742 -1.7115 0.48768
            CHANNELS 3 Zrotation Xrotation Yrotation
            JOINT lHand
            {
              OFFSET 22.5879 0.773209 7.07136
              CHANNELS 3 Zrotation Xrotation Yrotation
              JOINT lThumb1
              {
                OFFSET 1.2192 -0.487915 3.41376
                CHANNELS 3 Zrotation Xrotation Yrotation
                JOINT lThumb2
                {
                  OFFSET 3.37035 -0.52449 3.41376
                  CHANNELS 3 Zrotation Xrotation Yrotation
                  End Site
                  {
                    OFFSET 1.78271 -1.18214 1.43049
                  }
                }
              }
              JOINT lIndex1
              {
                OFFSET 7.75947 0.938293 5.60832
                CHANNELS 3 Zrotation Xrotation Yrotation
                JOINT lIndex2
                {
                  OFFSET 2.54057 -0.884171 1.56538
                  CHANNELS 3 Zrotation Xrotation Yrotation
                  End Site
                  {
                    OFFSET 1.62519 -0.234802 1.16502
                  }
                }
              }
              JOINT lMid1
              {
                OFFSET 8.24714 1.18213 3.41376
                CHANNELS 3 Zrotation Xrotation Yrotation
                JOINT lMid2
                {
                  OFFSET 3.10165 -0.590103 1.0647
                  CHANNELS 3 Zrotation Xrotation Yrotation
                  End Site
                  {
                    OFFSET 2.48547 -0.328903 0.83742
                  }
                }
              }
              JOINT lRing1
              {
                OFFSET 8.82822 0.546677 1.51678
                CHANNELS 3 Zrotation Xrotation Yrotation
                JOINT lRing2
                {
                  OFFSET 2.60934 -0.819778 -0.0198488
                  CHANNELS 3 Zrotation Xrotation Yrotation
                  End Site
                  {
                    OFFSET 2.33842 -0.294052 0.168128
                  }
                }
              }
              JOINT lPinky1
              {
                OFFSET 8.27202 -0.0477905 -0.4584
                CHANNELS 3 Zrotation Xrotation Yrotation
                JOINT lPinky2
                {
                  OFFSET 1.82734 -0.647385 -0.700984
                  CHANNELS 3 Zrotation Xrotation Yrotation
                  End Site
                  {
                    OFFSET 1.69225 -0.51767 -0.607171
                  }
                }
              }
            }
          }
        }
      }
    }
  }
  JOINT rButtock
  {
    OFFSET -8.77824 4.35084 1.2192
    CHANNELS 3 Zrotation Xrotation Yrotation
    JOINT rThigh
    {
      OFFSET 0 -1.70687 -2.19456
      CHANNELS 3 Zrotation Xrotation Yrotation
      JOINT rShin
      {
        OFFSET 0 -36.8199 0.73152
        CHANNELS 3 Zrotation Xrotation Yrotation
        JOINT rFoot
        {
          OFFSET 0.73152 -45.1104 -5.12064
          CHANNELS 3 Zrotation Xrotation Yrotation
          End Site
          {
            OFFSET -1.1221 -3.69964 12.103
          }
        }
      }
    }
  }
  JOINT lButtock
  {
    OFFSET 8.77824 4.35084 1.2192
    CHANNELS 3 Zrotation Xrotation Yrotation
    JOINT lThigh
    {
      OFFSET 0 -1.70687 -2.19456
      CHANNELS 3 Zrotation Xrotation Yrotation
      JOINT lShin
      {
        OFFSET 0 -36.8199 0.73152
        CHANNELS 3 Zrotation Xrotation Yrotation
        JOINT lFoot
        {
          OFFSET -0.73152 -45.1104 -5.12064
          CHANNELS 3 Zrotation Xrotation Yrotation
          End Site
          {
            OFFSET 1.1221 -3.69964 12.103
          }
        }
      }
    }
  }
}
MOTION
Frames:	7
Frame Time:	0.03333
0.0 0.0 0.0 0.0 0.0 0.0 0.0 0.0 0.0 0.0 0.0 0.0 0.0 0.0 0.0 0.0 0.0 0.0 0.0 0.0 0.0 0.0 0.0 0.0 0.0 0.0 0.0 0.0 0.0 0.0 0.0 0.0 0.0 0.0 0.0 0.0 0.0 0.0 0.0 0.0 0.0 0.0 0.0 0.0 0.0 0.0 0.0 0.0 0.0 0.0 0.0 0.0 0.0 0.0 0.0 0.0 0.0 0.0 0.0 0.0 0.0 0.0 0.0 0.0 0.0 0.0 0.0 0.0 0.0 0.0 0.0 0.0 0.0 0.0 0.0 0.0 0.0 0.0 0.0 0.0 0.0 0.0 0.0 0.0 0.0 0.0 0.0 0.0 0.0 0.0 0.0 0.0 0.0 0.0 0.0 0.0 0.0 0.0 0.0 0.0 0.0 0.0 0.0 0.0 0.0 0.0 0.0 0.0 0.0 0.0 0.0 0.0 0.0 0.0 0.0 0.0 0.0 0.0 0.0 0.0 0.0 0.0 0.0 0.0 0.0 0.0 0.0 0.0 0.0 0.0 0.0 0.0
0.2231 61.9579 -0.1532 179.093012 -50.644664 179.54304 0.819539 0.629145 -107.990486 -6.629683 7.647434 35.436523 9.357473 -12.045536 101.028166 3.251853 -36.255314 0.420269 -155.201303 15.802372 64.524627 49.539314 -6.167093 -13.318025 22.071276 68.686059 59.970202 -84.281476 77.229516 92.430414 -1.183311 60.474789 154.023053 -28.463485 56.344657 -48.716965 12.164084 -28.765678 25.250052 -59.795 53.938456 -168.069919 -26.11247 -13.933144 -54.391787 -39.343172 0.177535 174.700067 149.174499 39.206219 -119.62893 -84.100283 -22.526036 106.679385 -166.607997 28.978993 -93.240989 26.193086 0.464307 -4.31304 29.479589 4.370899 -64.015581 -15.051192 -43.258458 -17.696356 81.734137 -64.669116 -164.934341 -5.109876 16.125455 -17.472738 174.507786 -0.671484 18.703278 -21.254191 -29.010735 54.274831 161.599355 9.153484 -54.422767 128.929814 1.868863 -53.968587 -116.62763 -47.31747 -112.752479 112.211595 -38.479016 -161.218911 157.683806 7.320575 -98.314807 -111.62686 -62.150005 169.785442 73.611304 7.984174 115.086045 -166.242247 -75.430674 -167.847937 89.547768 27.087119 74.179734 35.792342 70.741415 -81.431774 -41.369474 -28.223895 -69.677835 -8.50379 47.065654 -106.187206 4.573243 2.589229 140.274888 -70.252701 -11.946271 105.65497 -49.618065 -5.924239 -84.693252 -2.180536 50.772193 1.662053 0.831443 -7.716466 -1.108112 -68.62454 -19.1725 98.117234
0.32980000000000004 65.6704 -1.2728 -0.431977 -17.372614 1.063817 -3.748152 9.130334 -118.113854 -0.75265 1.971619 126.270267 -9.00417 16.96655 -114.959139 31.85658 23.881566 94.953867 -12.658903 1.084434 -9.753276 -5.138976 0.923045 -20.352433 -150.70939 -42.067768 -179.943578 -101.91057 -58.45891 -81.189084 -99.070028 -62.001634 -71.323966 4.773237 -19.761323 -2.092591 27.313505 -16.425678 -6.676169 -171.073498 -35.645324 90.881027 -138.450113 -10.277896 117.789151 -3.824919 53.188249 36.950704 -12.687338 -4.068886 0.959426 -145.688467 -6.175476 145.156073 -116.399065 42.277338 127.123542 -104.466999 49.007654 139.196867 -116.572275 57.069766 160.125413 47.166449 14.704574 -7.208918 78.889187 66.865752 -83.968075 -91.649097 -25.985345 -93.001451 -5.943096 5.364917 -30.230699 4.942124 -0.331253 -2.638044 100.238581 38.433703 -63.589872 1.106753 1.605954 -27.329972 113.504254 34.050695 -105.419114 26.292427 63.913612 -47.809602 72.478863 64.75351 -50.455898 -86.677088 -63.056928 -63.678384 -11.562343 61.193936 -3.201427 -127.141187 89.56693 133.91961 -58.913004 83.328022 27.236467 24.366034 0.732831 -9.654635 -0.723613 -1.48901 0.911336 -17.667927 -22.580692 -7.305423 24.645987 48.649605 67.989884 -120.73294 -45.331676 146.489157 -50.183724 22.794598 -48.741095 83.016048 17.090756 92.061822 31.323921 40.388452 -119.779048 7.946838 3.524261 84.128148
0.5848 73.4884 -2.5673000000000004 0.492 -17.942812 -1.739194 -11.272557 17.100761 -0.0 7.926557 -7.66054 13.598426 -13.132572 17.185726 -84.771658 35.532294 13.666537 59.516399 -7.473207 0.004064 -0.062227 15.602732 -4.273643 -30.468398 -0.188262 33.643528 -3.051838 63.095074 -5.01079 33.072227 85.623726 -34.367543 68.098019 -168.947996 56.31549 144.768034 112.576268 -56.406045 68.416764 -13.650483 1.184953 -0.087276 -59.12106 40.523085 28.413938 -166.325 1.502584 103.945173 -20.826336 -1.40963 -1.061152 -171.563407 -74.117795 136.197986 -132.51549 -79.464394 -132.431986 -111.909799 -62.845743 -119.733688 10.042264 38.479436 40.066109 -176.054645 23.915397 -99.278009 152.815949 -3.844574 -158.395232 174.656985 80.807006 -124.470412 127.528533 0.83898 -160.665216 -54.086073 -68.710345 -44.51305 -17.649296 -7.539743 6.430235 137.459387 3.51501 -109.78522 123.992028 -4.537168 -120.51244 154.012803 -58.715019 -83.351037 -8.117564 -0.241292 5.735137 172.031724 11.044085 -151.724005 146.969808 -39.17895 154.997796 154.29817 4.30321 169.586657 -169.929577 32.519706 114.455542 86.131769 -24.573711 53.144362 -0.046148 -1.098187 -2.406415 -14.552726 -23.256137 -107.078958 -56.258705 0.445997 -157.078044 -150.420469 -10.601512 135.90183 -177.50845 68.860274 0.0 -162.978167 41.442421 -180.0 4.265487 -50.295604 111.377447 148.812245 23.449989 -82.586533
0.8668 74.33279999999999 -3.511 -0.820264 -17.950597 -2.976459 -7.884483 16.137744 -104.380417 6.355123 6.852069 116.263234 4.061689 8.754837 50.501352 -14.993435 -10.671977 -77.618196 7.8838 0.016772 0.2434 6.726547 -1.633586 -27.272356 -134.821986 -71.98058 -158.620473 173.24558 -1.359967 -135.944122 -7.973475 -59.184094 29.792492 -4.230975 42.289676 -0.797466 90.426511 -57.972895 60.102203 -142.176348 -57.31216 139.16886 -107.267323 49.164434 71.256064 165.598461 0.918298 130.790872 -64.098237 45.459375 29.130463 -148.049672 -16.16888 119.902769 -151.339576 16.31047 170.010616 7.587889 68.116423 -10.685367 -109.693276 43.19331 -168.534116 -111.010942 35.841158 -127.519982 -7.264082 1.965241 -6.002913 -66.742586 17.674718 -6.02451 91.478327 41.211345 -74.517912 -36.556627 -64.183318 -26.753472 164.388245 -1.208526 -83.058318 -68.052225 -54.884371 -64.366146 35.761736 36.963856 -46.926095 135.348501 -7.549876 -159.432264 -7.386218 26.99718 -8.012406 15.234717 4.235847 34.405034 8.945486 -14.051662 0.952083 -22.022002 29.702067 0.545588 2.825157 -1.523015 7.404866 28.228798 -41.018927 10.131299 23.50256 6.13677 23.987204 -42.53007 -11.733612 0.0 41.177984 38.654445 54.253685 -89.078664 -44.250646 -173.476849 178.267563 70.071366 -0.0 -161.850724 43.914463 0.0 7.818594 56.312673 -145.854504 87.801227 -14.790436 174.881775
1.0064 76.1675 -3.7137000000000002 -1.498997 -15.749698 -0.435125 -8.443443 14.002705 1.713446 6.573463 -10.034243 6.704537 2.036695 30.379286 169.180181 -5.521675 36.808243 164.47571 21.528994 2.740157 14.340337 -7.809306 -0.734608 10.731405 2.7109 -44.145709 -12.497622 -94.755264 -32.664698 -133.073132 3.153585 -9.826649 -73.577197 153.722832 -37.677589 134.909265 85.809329 -53.452996 50.478512 -32.580908 -75.52287 -83.048557 -160.246629 -26.149744 128.646736 -46.092095 -75.228622 -135.175093 -176.323279 20.741799 127.826545 143.896788 -17.777064 120.044132 -80.746844 -74.264301 -92.360472 -114.884169 -31.090284 -155.190169 -127.211242 37.800623 -161.977079 -127.090605 14.364431 -120.868716 147.750975 -6.370019 -157.860758 49.100877 2.296788 -1.921096 -173.124344 8.146828 153.544366 21.684021 41.355745 -11.114556 -176.249345 -0.385217 -82.885203 -129.617234 -66.159935 -143.868821 -50.984626 -31.142896 -5.612401 18.632854 -27.808363 9.30372 3.07422 36.434759 -16.844914 8.082694 52.312537 37.53478 -7.08901 -26.222715 -5.618797 164.441222 0.1654 -179.307348 130.235917 73.509541 175.078545 55.98185 -42.106651 67.313521 -5.352308 -3.423017 -0.0 0.825369 -22.904971 -177.880162 -14.905459 -50.715944 -111.433849 -30.168653 74.683786 -59.879841 74.739325 32.682475 54.053556 -85.937813 17.738385 73.411066 52.100163 -23.114456 -5.729157 -119.663433 58.148908 30.054711
0.9641000000000001 77.02250000000001 -3.5796 -2.419731 -12.921445 3.560186 -5.563765 4.660567 -0.0 5.469954 -4.910014 2.855151 7.631022 30.062139 133.509059 -20.152087 33.000692 -160.867811 30.765139 7.166543 25.645993 -0.036942 -0.011518 34.631897 -155.900991 -22.093784 166.049626 138.96508 5.946993 -178.293684 166.596992 4.253687 109.645427 170.735681 -10.673448 145.412121 89.816413 -49.332602 45.842995 -82.704141 53.245896 41.230386 -142.510085 -17.107929 124.237164 -14.916335 72.167383 31.909985 30.965526 -67.943176 26.619272 -16.690115 -34.66726 -45.496555 -5.801395 -0.573681 -3.952848 42.5544 38.044852 27.119441 -144.137167 -0.411634 -154.936751 -157.478863 14.47785 -136.162706 -8.612615 -24.584252 2.019539 -73.147343 30.196493 13.018231 93.789572 52.297869 -79.401907 -18.463599 -53.570009 -14.674004 172.567073 12.821044 -86.918995 -122.364723 -42.739515 -141.502066 -32.650982 -4.65379 -9.322027 160.64534 39.926007 -102.596735 14.683082 49.343694 -23.943106 174.775563 -36.87761 173.814808 -21.560167 -43.800289 -12.503614 178.472178 0.042834 -178.091244 78.431609 -56.882967 87.774925 153.643212 21.212676 136.853382 115.832629 70.705422 46.577119 -144.014949 46.680857 -99.407831 -43.17676 9.254991 102.642536 76.267256 -57.086604 -3.86346 -18.410025 -11.176065 -25.092496 30.915663 -6.09481 79.946283 53.046291 21.96492 66.498165 178.12547 34.8935 115.768742
